<mxfile host="65bd71144e">
    <diagram id="rQZUp-i70rbDF242hrWy" name="Page-1">
        <mxGraphModel dx="1082" dy="825" grid="1" gridSize="10" guides="1" tooltips="1" connect="1" arrows="1" fold="1" page="1" pageScale="1" pageWidth="850" pageHeight="1100" math="0" shadow="0">
            <root>
                <mxCell id="0"/>
                <mxCell id="1" parent="0"/>
                <mxCell id="8" value="#NetworkEntity" style="rounded=1;whiteSpace=wrap;html=1;fontFamily=Consolas;fontSize=22;fillColor=#d80073;fontColor=#ffffff;strokeColor=#A50040;" parent="1" vertex="1">
                    <mxGeometry x="40" y="80" width="200" height="80" as="geometry"/>
                </mxCell>
                <mxCell id="9" value="" style="endArrow=classic;html=1;fontSize=22;exitX=1;exitY=0;exitDx=0;exitDy=0;entryX=0;entryY=0.5;entryDx=0;entryDy=0;" parent="1" source="8" target="14" edge="1">
                    <mxGeometry width="50" height="50" relative="1" as="geometry">
                        <mxPoint x="320" y="130" as="sourcePoint"/>
                        <mxPoint x="320" y="80" as="targetPoint"/>
                    </mxGeometry>
                </mxCell>
                <mxCell id="10" value="" style="endArrow=classic;html=1;fontSize=22;exitX=1;exitY=0.25;exitDx=0;exitDy=0;entryX=0;entryY=0.5;entryDx=0;entryDy=0;" parent="1" source="8" target="15" edge="1">
                    <mxGeometry width="50" height="50" relative="1" as="geometry">
                        <mxPoint x="300" y="190" as="sourcePoint"/>
                        <mxPoint x="320" y="100" as="targetPoint"/>
                    </mxGeometry>
                </mxCell>
                <mxCell id="11" value="" style="endArrow=classic;html=1;fontSize=22;exitX=1;exitY=0.5;exitDx=0;exitDy=0;entryX=0;entryY=0.5;entryDx=0;entryDy=0;" parent="1" source="8" target="16" edge="1">
                    <mxGeometry width="50" height="50" relative="1" as="geometry">
                        <mxPoint x="250" y="90" as="sourcePoint"/>
                        <mxPoint x="320" y="120" as="targetPoint"/>
                    </mxGeometry>
                </mxCell>
                <mxCell id="12" value="" style="endArrow=classic;html=1;fontSize=22;exitX=1;exitY=0.75;exitDx=0;exitDy=0;entryX=0;entryY=0.5;entryDx=0;entryDy=0;" parent="1" source="8" target="17" edge="1">
                    <mxGeometry width="50" height="50" relative="1" as="geometry">
                        <mxPoint x="260" y="100" as="sourcePoint"/>
                        <mxPoint x="320" y="140" as="targetPoint"/>
                    </mxGeometry>
                </mxCell>
                <mxCell id="13" value="" style="endArrow=classic;html=1;fontSize=22;exitX=1;exitY=1;exitDx=0;exitDy=0;entryX=0;entryY=0.5;entryDx=0;entryDy=0;entryPerimeter=0;" parent="1" source="8" target="18" edge="1">
                    <mxGeometry width="50" height="50" relative="1" as="geometry">
                        <mxPoint x="270" y="110" as="sourcePoint"/>
                        <mxPoint x="320" y="160" as="targetPoint"/>
                    </mxGeometry>
                </mxCell>
                <mxCell id="14" value="mac" style="rounded=1;whiteSpace=wrap;html=1;fontFamily=Consolas;fontSize=13;fillColor=#d80073;fontColor=#ffffff;strokeColor=#A50040;" parent="1" vertex="1">
                    <mxGeometry x="320" y="70" width="110" height="20" as="geometry"/>
                </mxCell>
                <mxCell id="15" value="ip" style="rounded=1;whiteSpace=wrap;html=1;fontFamily=Consolas;fontSize=13;fillColor=#d80073;fontColor=#ffffff;strokeColor=#A50040;" parent="1" vertex="1">
                    <mxGeometry x="320" y="90" width="110" height="20" as="geometry"/>
                </mxCell>
                <mxCell id="16" value="ipv6" style="rounded=1;whiteSpace=wrap;html=1;fontFamily=Consolas;fontSize=13;fillColor=#d80073;fontColor=#ffffff;strokeColor=#A50040;" parent="1" vertex="1">
                    <mxGeometry x="320" y="110" width="110" height="20" as="geometry"/>
                </mxCell>
                <mxCell id="17" value="name" style="rounded=1;whiteSpace=wrap;html=1;fontFamily=Consolas;fontSize=13;fillColor=#d80073;fontColor=#ffffff;strokeColor=#A50040;" parent="1" vertex="1">
                    <mxGeometry x="320" y="130" width="110" height="20" as="geometry"/>
                </mxCell>
                <mxCell id="18" value="_compare" style="rounded=1;whiteSpace=wrap;html=1;fontFamily=Consolas;fontSize=13;fillColor=#d80073;fontColor=#ffffff;strokeColor=#A50040;" parent="1" vertex="1">
                    <mxGeometry x="320" y="150" width="110" height="20" as="geometry"/>
                </mxCell>
                <mxCell id="19" value="specials" style="rounded=1;whiteSpace=wrap;html=1;fontFamily=Consolas;fontSize=22;fillColor=#C056F5;" parent="1" vertex="1">
                    <mxGeometry x="40" y="210" width="200" height="80" as="geometry"/>
                </mxCell>
                <mxCell id="20" value="NetworkStorage" style="rounded=1;whiteSpace=wrap;html=1;fontFamily=Consolas;fontSize=22;fillColor=#C056F5;" parent="1" vertex="1">
                    <mxGeometry x="10" y="300" width="200" height="80" as="geometry"/>
                </mxCell>
                <mxCell id="21" value="LAN" style="rounded=1;whiteSpace=wrap;html=1;fontFamily=Consolas;fontSize=22;fillColor=#C056F5;" parent="1" vertex="1">
                    <mxGeometry x="10" y="390" width="200" height="80" as="geometry"/>
                </mxCell>
                <mxCell id="22" value="match" style="rounded=1;whiteSpace=wrap;html=1;fontFamily=Consolas;fontSize=22;fillColor=#C056F5;" parent="1" vertex="1">
                    <mxGeometry x="10" y="480" width="200" height="80" as="geometry"/>
                </mxCell>
                <mxCell id="23" value="LockedNetworkEntity" style="rounded=1;whiteSpace=wrap;html=1;fontFamily=Consolas;fontSize=22;fillColor=#C056F5;" parent="1" vertex="1">
                    <mxGeometry x="10" y="570" width="240" height="80" as="geometry"/>
                </mxCell>
                <mxCell id="24" value="SpecialInformation" style="rounded=1;whiteSpace=wrap;html=1;fontFamily=Consolas;fontSize=22;fillColor=#C056F5;" parent="1" vertex="1">
                    <mxGeometry x="10" y="660" width="240" height="80" as="geometry"/>
                </mxCell>
                <mxCell id="25" value="#NetworkEntity" style="rounded=1;whiteSpace=wrap;html=1;fontFamily=Consolas;fontSize=22;fillColor=#d80073;fontColor=#ffffff;strokeColor=#A50040;" vertex="1" parent="1">
                    <mxGeometry x="240" y="220" width="200" height="80" as="geometry"/>
                </mxCell>
            </root>
        </mxGraphModel>
    </diagram>
</mxfile>
